<svg width="20" height="20" viewBox="0 0 20 20" fill="none" xmlns="http://www.w3.org/2000/svg">
<path d="M16.75 5.5H16C15.8011 5.5 15.6103 5.57902 15.4697 5.71967C15.329 5.86032 15.25 6.05109 15.25 6.25C15.25 6.44891 15.329 6.63968 15.4697 6.78033C15.6103 6.92098 15.8011 7 16 7V15.25C16 15.4489 15.921 15.6397 15.7803 15.7803C15.6397 15.921 15.4489 16 15.25 16C15.0511 16 14.8603 15.921 14.7197 15.7803C14.579 15.6397 14.5 15.4489 14.5 15.25V4C14.5 3.60218 14.342 3.22064 14.0607 2.93934C13.7794 2.65804 13.3978 2.5 13 2.5H4C3.60218 2.5 3.22064 2.65804 2.93934 2.93934C2.65804 3.22064 2.5 3.60218 2.5 4V15.25C2.5 15.8467 2.73705 16.419 3.15901 16.841C3.58097 17.2629 4.15326 17.5 4.75 17.5H15.25C15.8467 17.5 16.419 17.2629 16.841 16.841C17.2629 16.419 17.5 15.8467 17.5 15.25V6.25C17.5 6.05109 17.421 5.86032 17.2803 5.71967C17.1397 5.57902 16.9489 5.5 16.75 5.5ZM4.75 5.5C4.75 5.30109 4.82902 5.11032 4.96967 4.96967C5.11032 4.82902 5.30109 4.75 5.5 4.75H7.75C7.94891 4.75 8.13968 4.82902 8.28033 4.96967C8.42098 5.11032 8.5 5.30109 8.5 5.5V7.75C8.5 7.94891 8.42098 8.13968 8.28033 8.28033C8.13968 8.42098 7.94891 8.5 7.75 8.5H5.5C5.30109 8.5 5.11032 8.42098 4.96967 8.28033C4.82902 8.13968 4.75 7.94891 4.75 7.75V5.5ZM11.5 15.25H5.5C5.30109 15.25 5.11032 15.171 4.96967 15.0303C4.82902 14.8897 4.75 14.6989 4.75 14.5C4.75 14.3011 4.82902 14.1103 4.96967 13.9697C5.11032 13.829 5.30109 13.75 5.5 13.75H11.5C11.6989 13.75 11.8897 13.829 12.0303 13.9697C12.171 14.1103 12.25 14.3011 12.25 14.5C12.25 14.6989 12.171 14.8897 12.0303 15.0303C11.8897 15.171 11.6989 15.25 11.5 15.25ZM11.5 13H5.5C5.30109 13 5.11032 12.921 4.96967 12.7803C4.82902 12.6397 4.75 12.4489 4.75 12.25C4.75 12.0511 4.82902 11.8603 4.96967 11.7197C5.11032 11.579 5.30109 11.5 5.5 11.5H11.5C11.6989 11.5 11.8897 11.579 12.0303 11.7197C12.171 11.8603 12.25 12.0511 12.25 12.25C12.25 12.4489 12.171 12.6397 12.0303 12.7803C11.8897 12.921 11.6989 13 11.5 13ZM11.5 10.75H5.5C5.30109 10.75 5.11032 10.671 4.96967 10.5303C4.82902 10.3897 4.75 10.1989 4.75 10C4.75 9.80109 4.82902 9.61032 4.96967 9.46967C5.11032 9.32902 5.30109 9.25 5.5 9.25H11.5C11.6989 9.25 11.8897 9.32902 12.0303 9.46967C12.171 9.61032 12.25 9.80109 12.25 10C12.25 10.1989 12.171 10.3897 12.0303 10.5303C11.8897 10.671 11.6989 10.75 11.5 10.75ZM11.5 8.5H10C9.80109 8.5 9.61032 8.42098 9.46967 8.28033C9.32902 8.13968 9.25 7.94891 9.25 7.75C9.25 7.55109 9.32902 7.36032 9.46967 7.21967C9.61032 7.07902 9.80109 7 10 7H11.5C11.6989 7 11.8897 7.07902 12.0303 7.21967C12.171 7.36032 12.25 7.55109 12.25 7.75C12.25 7.94891 12.171 8.13968 12.0303 8.28033C11.8897 8.42098 11.6989 8.5 11.5 8.5ZM11.5 6.25H10C9.80109 6.25 9.61032 6.17098 9.46967 6.03033C9.32902 5.88968 9.25 5.69891 9.25 5.5C9.25 5.30109 9.32902 5.11032 9.46967 4.96967C9.61032 4.82902 9.80109 4.75 10 4.75H11.5C11.6989 4.75 11.8897 4.82902 12.0303 4.96967C12.171 5.11032 12.25 5.30109 12.25 5.5C12.25 5.69891 12.171 5.88968 12.0303 6.03033C11.8897 6.17098 11.6989 6.25 11.5 6.25Z" fill="#1A56DB"/>
<path d="M7 6.25H6.25V7H7V6.25Z" fill="#1A56DB"/>
</svg>

