<svg width="20" height="20" viewBox="0 0 20 20" fill="none" xmlns="http://www.w3.org/2000/svg">
<path d="M16.6667 9.16667C16.2058 9.16667 15.8333 9.54 15.8333 10C15.8333 13.2167 13.2158 15.8333 10 15.8333C8.46 15.8333 7.0025 15.2167 5.92583 14.1667H8.33333C8.79417 14.1667 9.16667 13.7933 9.16667 13.3333C9.16667 12.8733 8.79417 12.5 8.33333 12.5H4.3775C4.2125 12.4658 4.04 12.4858 3.87583 12.5583C3.86083 12.5642 3.845 12.5667 3.83 12.5733C3.81917 12.5792 3.8075 12.5783 3.79667 12.5842C3.77417 12.5975 3.76167 12.6192 3.74 12.6333C3.50083 12.7808 3.33333 13.0325 3.33333 13.3333V17.5C3.33333 17.96 3.70583 18.3333 4.16667 18.3333C4.6275 18.3333 5 17.96 5 17.5V15.5667C6.35833 16.7842 8.12917 17.5 10 17.5C14.1358 17.5 17.5 14.135 17.5 10C17.5 9.54 17.1275 9.16667 16.6667 9.16667Z" fill="white"/>
<path d="M4.16667 10C4.16667 6.78333 6.78417 4.16667 10 4.16667C11.54 4.16667 12.9975 4.78333 14.0742 5.83333H11.6667C11.2058 5.83333 10.8333 6.20667 10.8333 6.66667C10.8333 7.12667 11.2058 7.5 11.6667 7.5H15.6208C15.7867 7.535 15.9608 7.51417 16.125 7.44083C16.14 7.435 16.1558 7.4325 16.1708 7.42584C16.1817 7.42 16.1933 7.42083 16.2042 7.415C16.2267 7.40167 16.2392 7.38 16.2608 7.36583C16.4992 7.21917 16.6667 6.9675 16.6667 6.66667V2.5C16.6667 2.04 16.2942 1.66667 15.8333 1.66667C15.3725 1.66667 15 2.04 15 2.5V4.43333C13.6417 3.21583 11.8708 2.5 10 2.5C5.86417 2.5 2.5 5.865 2.5 10C2.5 10.46 2.8725 10.8333 3.33333 10.8333C3.79417 10.8333 4.16667 10.46 4.16667 10Z" fill="white"/>
</svg>
