<svg width="16" height="16" viewBox="0 0 16 16" fill="none" xmlns="http://www.w3.org/2000/svg">
<rect width="16" height="16" rx="2" fill="white"/>
<mask id="mask0_457_536" style="mask-type:luminance" maskUnits="userSpaceOnUse" x="0" y="0" width="16" height="16">
<rect width="16" height="16" rx="2" fill="white"/>
</mask>
<g mask="url(#mask0_457_536)">
<path d="M16 16H0V14.9336H16V16ZM16 13.8662H0V12.7998H16V13.8662ZM16 11.7334H0V10.667H16V11.7334ZM16 9.59961H0V8.5332H16V9.59961ZM16 7.4668H0V6.40039H16V7.4668ZM16 5.33301H0V4.2666H16V5.33301ZM16 3.2002H0V2.13379H16V3.2002ZM16 1.06641H0V0H16V1.06641Z" fill="#D02F44"/>
<rect width="6.85714" height="7.46667" fill="#46467F"/>
<g filter="url(#filter0_d_457_536)">
<path d="M1.14277 5.33327C1.35311 5.33327 1.52355 5.57201 1.52362 5.86647C1.52362 6.16102 1.35316 6.39967 1.14277 6.39967C0.932414 6.3996 0.761906 6.16098 0.761906 5.86647C0.761981 5.57205 0.93246 5.33334 1.14277 5.33327ZM2.6662 5.33327C2.87655 5.33327 3.04796 5.57201 3.04804 5.86647C3.04804 6.16102 2.8766 6.39967 2.6662 6.39967C2.45602 6.39932 2.28534 6.1608 2.28534 5.86647C2.28542 5.57223 2.45607 5.33362 2.6662 5.33327ZM4.19062 5.33327C4.4009 5.33337 4.5714 5.57207 4.57148 5.86647C4.57148 6.16096 4.40095 6.39957 4.19062 6.39967C3.98022 6.39967 3.80976 6.16102 3.80976 5.86647C3.80983 5.57201 3.98027 5.33327 4.19062 5.33327ZM5.71405 5.33327C5.9244 5.33327 6.09484 5.57201 6.09491 5.86647C6.09491 6.16102 5.92445 6.39967 5.71405 6.39967C5.50377 6.3995 5.33319 6.16091 5.33319 5.86647C5.33327 5.57212 5.50381 5.33344 5.71405 5.33327ZM1.90448 4.26686C2.11488 4.26686 2.28534 4.50551 2.28534 4.80006C2.28532 5.09459 2.11486 5.33327 1.90448 5.33327C1.69423 5.33306 1.52365 5.09446 1.52362 4.80006C1.52362 4.50564 1.69422 4.26707 1.90448 4.26686ZM3.4289 4.26686C3.63914 4.26711 3.80976 4.50566 3.80976 4.80006C3.80973 5.09443 3.63913 5.33302 3.4289 5.33327C3.21852 5.33327 3.04806 5.09459 3.04804 4.80006C3.04804 4.50551 3.2185 4.26686 3.4289 4.26686ZM4.95234 4.26686C5.16273 4.26686 5.33319 4.50551 5.33319 4.80006C5.33317 5.09459 5.16271 5.33327 4.95234 5.33327C4.74198 5.33323 4.5715 5.09456 4.57148 4.80006C4.57148 4.50553 4.74196 4.2669 4.95234 4.26686ZM1.14277 3.20045C1.35316 3.20045 1.52362 3.43911 1.52362 3.73366C1.5235 4.02806 1.35308 4.26686 1.14277 4.26686C0.932491 4.26679 0.762031 4.02802 0.761906 3.73366C0.761906 3.43915 0.932414 3.20053 1.14277 3.20045ZM2.6662 3.20045C2.8766 3.20045 3.04804 3.43911 3.04804 3.73366C3.04791 4.02806 2.87652 4.26686 2.6662 4.26686C2.4561 4.26651 2.28547 4.02784 2.28534 3.73366C2.28534 3.43932 2.45602 3.20081 2.6662 3.20045ZM4.19062 3.20045C4.40095 3.20056 4.57148 3.43917 4.57148 3.73366C4.57135 4.028 4.40087 4.26676 4.19062 4.26686C3.9803 4.26686 3.80988 4.02806 3.80976 3.73366C3.80976 3.43911 3.98022 3.20045 4.19062 3.20045ZM5.71405 3.20045C5.92445 3.20045 6.09491 3.43911 6.09491 3.73366C6.09479 4.02806 5.92437 4.26686 5.71405 4.26686C5.50384 4.26669 5.33332 4.02795 5.33319 3.73366C5.33319 3.43921 5.50377 3.20063 5.71405 3.20045ZM1.90448 2.13307C2.11478 2.13307 2.28519 2.3719 2.28534 2.66628C2.28534 2.96083 2.11488 3.20045 1.90448 3.20045C1.69422 3.20024 1.52362 2.9607 1.52362 2.66628C1.52378 2.37203 1.69431 2.13328 1.90448 2.13307ZM3.4289 2.13307C3.63905 2.13332 3.80961 2.37205 3.80976 2.66628C3.80976 2.96068 3.63914 3.20021 3.4289 3.20045C3.2185 3.20045 3.04804 2.96083 3.04804 2.66628C3.04819 2.3719 3.2186 2.13307 3.4289 2.13307ZM4.95234 2.13307C5.16264 2.13307 5.33304 2.3719 5.33319 2.66628C5.33319 2.96083 5.16273 3.20045 4.95234 3.20045C4.74196 3.20042 4.57148 2.96081 4.57148 2.66628C4.57163 2.37192 4.74206 2.13311 4.95234 2.13307ZM1.14277 1.06667C1.35313 1.06667 1.52357 1.30538 1.52362 1.59987C1.52362 1.89442 1.35316 2.13307 1.14277 2.13307C0.932414 2.133 0.761906 1.89438 0.761906 1.59987C0.761956 1.30542 0.932445 1.06674 1.14277 1.06667ZM2.6662 1.06667C2.87657 1.06667 3.04799 1.30538 3.04804 1.59987C3.04804 1.89442 2.8766 2.13307 2.6662 2.13307C2.45602 2.13272 2.28534 1.8942 2.28534 1.59987C2.28539 1.30559 2.45605 1.06702 2.6662 1.06667ZM4.19062 1.06667C4.40092 1.06677 4.57143 1.30544 4.57148 1.59987C4.57148 1.89436 4.40095 2.13297 4.19062 2.13307C3.98022 2.13307 3.80976 1.89442 3.80976 1.59987C3.80981 1.30538 3.98025 1.06667 4.19062 1.06667ZM5.71405 1.06667C5.92442 1.06667 6.09486 1.30538 6.09491 1.59987C6.09491 1.89442 5.92445 2.13307 5.71405 2.13307C5.50377 2.1329 5.33319 1.89431 5.33319 1.59987C5.33324 1.30549 5.5038 1.06684 5.71405 1.06667Z" fill="url(#paint0_linear_457_536)"/>
</g>
</g>
<defs>
<filter id="filter0_d_457_536" x="0.761906" y="1.06667" width="5.33301" height="6.33301" filterUnits="userSpaceOnUse" color-interpolation-filters="sRGB">
<feFlood flood-opacity="0" result="BackgroundImageFix"/>
<feColorMatrix in="SourceAlpha" type="matrix" values="0 0 0 0 0 0 0 0 0 0 0 0 0 0 0 0 0 0 127 0" result="hardAlpha"/>
<feOffset dy="1"/>
<feColorMatrix type="matrix" values="0 0 0 0 0 0 0 0 0 0 0 0 0 0 0 0 0 0 0.06 0"/>
<feBlend mode="normal" in2="BackgroundImageFix" result="effect1_dropShadow_457_536"/>
<feBlend mode="normal" in="SourceGraphic" in2="effect1_dropShadow_457_536" result="shape"/>
</filter>
<linearGradient id="paint0_linear_457_536" x1="0.761906" y1="1.06667" x2="0.761906" y2="6.39967" gradientUnits="userSpaceOnUse">
<stop stop-color="white"/>
<stop offset="1" stop-color="#F0F0F0"/>
</linearGradient>
</defs>
</svg>
